# xmcd
#
# Track frame offsets:
#	150
#	13383
#	27549
#	46546
#	62118
#	81038
#	96653
#	114537
#	131798
#	149760
#
# Disc length: 2221 seconds
#
# Revision: 0
# Processed by: cddbd v1.5.1PL2 Copyright (c) Steve Scherf et al.
# Submitted via: EasyCDDAExtractor 4.6.9.1
#
DISCID=9408ab0a
DTITLE=Jo Dee Messina
DYEAR=1996
DGENRE=Country
TTITLE0=You're Not In Kansas Anymore
TTITLE1=On A Wing And A Prayer
TTITLE2=He'd Never Seen Julie Cry
TTITLE3=No Time For Tears
TTITLE4=Let It Go
TTITLE5=Heads Carolina, Tails California
TTITLE6=Walk To The Light
TTITLE7=I Didn't Have To Leave You
TTITLE8=Every Little Girl's Dream
TTITLE9=Another Shoulder At The Wheel
EXTD=
EXTT0=
EXTT1=
EXTT2=
EXTT3=
EXTT4=
EXTT5=
EXTT6=
EXTT7=
EXTT8=
EXTT9=
PLAYORDER=
